HIERARCHY
ROOT Hips
{
	OFFSET 0.00000 0.00000 0.00000
	CHANNELS 6 Xposition Yposition Zposition Zrotation Yrotation Xrotation 
	JOINT LHipJoint
	{
		OFFSET 0 0 0
		CHANNELS 3 Zrotation Yrotation Xrotation
		JOINT LeftUpLeg
		{
			OFFSET 1.80322 -1.53100 0.99595
			CHANNELS 3 Zrotation Yrotation Xrotation
			JOINT LeftLeg
			{
				OFFSET 2.25177 -6.18669 0.00000
				CHANNELS 3 Zrotation Yrotation Xrotation
				JOINT LeftFoot
				{
					OFFSET 2.26601 -6.22582 0.00000
					CHANNELS 3 Zrotation Yrotation Xrotation
					JOINT LeftToeBase
					{
						OFFSET 0.23701 -0.65119 2.15848
						CHANNELS 3 Zrotation Yrotation Xrotation
						End Site
						{
							OFFSET 0.00000 -0.00000 1.12949
						}
					}
				}
			}
		}
	}
	JOINT RHipJoint
	{
		OFFSET 0 0 0
		CHANNELS 3 Zrotation Yrotation Xrotation
		JOINT RightUpLeg
		{
			OFFSET -1.93977 -1.53100 0.99595
			CHANNELS 3 Zrotation Yrotation Xrotation
			JOINT RightLeg
			{
				OFFSET -2.28036 -6.26523 0.00000
				CHANNELS 3 Zrotation Yrotation Xrotation
				JOINT RightFoot
				{
					OFFSET -2.25490 -6.19528 0.00000
					CHANNELS 3 Zrotation Yrotation Xrotation
					JOINT RightToeBase
					{
						OFFSET -0.28375 -0.77960 2.23137
						CHANNELS 3 Zrotation Yrotation Xrotation
						End Site
						{
							OFFSET -0.00000 -0.00000 1.17899
						}
					}
				}
			}
		}
	}
	JOINT LowerBack
	{
		OFFSET 0 0 0
		CHANNELS 3 Zrotation Yrotation Xrotation
		JOINT Spine
		{
			OFFSET -0.00088 2.12090 -0.02806
			CHANNELS 3 Zrotation Yrotation Xrotation
			JOINT Spine1
			{
				OFFSET -0.00286 2.09666 0.12974
				CHANNELS 3 Zrotation Yrotation Xrotation
				JOINT Neck
				{
					OFFSET 0 0 0
					CHANNELS 3 Zrotation Yrotation Xrotation
					JOINT Neck1
					{
						OFFSET 0.07328 1.83526 0.07290
						CHANNELS 3 Zrotation Yrotation Xrotation
						JOINT Head
						{
							OFFSET -0.06683 1.74974 -0.49542
							CHANNELS 3 Zrotation Yrotation Xrotation
							End Site
							{
								OFFSET -0.03398 1.85163 -0.17573
							}
						}
					}
				}
				JOINT LeftShoulder
				{
					OFFSET 0 0 0
					CHANNELS 3 Zrotation Yrotation Xrotation
					JOINT LeftArm
					{
						OFFSET 3.02113 1.18018 0.40602
						CHANNELS 3 Zrotation Yrotation Xrotation
						JOINT LeftForeArm
						{
							OFFSET 4.58538 -0.00000 -0.00000
							CHANNELS 3 Zrotation Yrotation Xrotation
							JOINT LeftHand
							{
								OFFSET 2.68935 -0.00000 -0.00000
								CHANNELS 3 Zrotation Yrotation Xrotation
								JOINT LeftFingerBase
								{
									OFFSET 0 0 0
									CHANNELS 3 Zrotation Yrotation Xrotation
									JOINT LeftHandIndex1
									{
										OFFSET 0.58506 -0.00000 -0.00000
										CHANNELS 3 Zrotation Yrotation Xrotation
										End Site
										{
											OFFSET 0.47169 -0.00000 -0.00000
										}
									}
								}
								JOINT LThumb
								{
									OFFSET 0 0 0
									CHANNELS 3 Zrotation Yrotation Xrotation
									End Site
									{
										OFFSET 0.47889 -0.00000 0.47889
									}
								}
							}
						}
					}
				}
				JOINT RightShoulder
				{
					OFFSET 0 0 0
					CHANNELS 3 Zrotation Yrotation Xrotation
					JOINT RightArm
					{
						OFFSET -2.95074 1.18843 0.31430
						CHANNELS 3 Zrotation Yrotation Xrotation
						JOINT RightForeArm
						{
							OFFSET -4.47450 -0.00000 -0.00000
							CHANNELS 3 Zrotation Yrotation Xrotation
							JOINT RightHand
							{
								OFFSET -2.93896 -0.00000 -0.00000
								CHANNELS 3 Zrotation Yrotation Xrotation
								JOINT RightFingerBase
								{
									OFFSET 0 0 0
									CHANNELS 3 Zrotation Yrotation Xrotation
									JOINT RightHandIndex1
									{
										OFFSET -0.40509 -0.00000 -0.00000
										CHANNELS 3 Zrotation Yrotation Xrotation
										End Site
										{
											OFFSET -0.32660 -0.00000 -0.00000
										}
									}
								}
								JOINT RThumb
								{
									OFFSET 0 0 0
									CHANNELS 3 Zrotation Yrotation Xrotation
									End Site
									{
										OFFSET -0.33158 -0.00000 0.33158
									}
								}
							}
						}
					}
				}
			}
		}
	}
}
MOTION
Frames: 15
Frame Time: .0083333
-1.7919 15.039 -3.9161 0 0 0 0 0 0 -21 0 0 0 0 0 0 0 0 0 0 0 0 0 0 21 0 0 0 0 0 0 0 0 0 0 0 0 0 0 0 0 0 0 0 0 0 0 -16 0 0 21 0 0 11 0 0 0 -8 0 0 0 0 0 0 0 0 0 0 0 0 0 0 0 0 0 0 0 0 8 0 0 0 0 0 0 0 0 0 0 0 0 0 0 0 0 0
-1.7919 15.0390 -3.9161 -4.5722 -22.3541 11.8187 0.0000 0.0000 0.0000 4.9233 -22.6880 -33.7217 4.2117 12.4369 37.2957 -0.3203 19.0540 -24.1981 1.0123 6.4016 17.9541 0.0000 0.0000 0.0000 26.3901 6.7768 -9.6140 -3.1884 -10.9940 32.2597 -2.5297 -11.1110 -35.5900 -0.0003 0.1029 -0.2829 5.2623 -1.8375 -6.2968 1.4232 -2.6645 -6.7319 -1.5407 -1.5511 -3.6336 0.3460 -1.9492 -13.5322 -4.6186 -1.7415 29.3339 -2.0442 -1.4274 11.7800 0.0000 0.0000 0.0000 -82.4483 14.3811 39.5597 151.8639 -39.2412 -109.7903 -0.0000 -0.0000 2.8481 19.8934 5.0856 1.8372 -7.1250 0.0000 -0.0000 -5.6500 35.3402 1.3461 0.0000 0.0000 0.0000 72.6252 -10.4047 50.7992 -145.7854 44.2431 -105.7375 0.0000 -0.0000 -22.6994 -11.8940 -1.1699 0.2464 7.1250 -0.0000 -0.0000 11.6497 -31.0474 4.0467
-1.7870 15.0348 -3.8976 -4.5616 -22.4535 11.8269 0.0000 0.0000 0.0000 4.7629 -22.6387 -33.5957 4.2032 12.4259 37.2559 -0.3224 19.1384 -24.3124 0.9945 6.3466 17.7936 0.0000 0.0000 0.0000 26.3063 6.7821 -9.5781 -3.1967 -11.0069 32.3032 -2.5455 -11.0300 -35.6217 -0.0006 0.1628 -0.4472 5.3201 -1.8114 -6.5266 1.4785 -2.6466 -6.7451 -1.5242 -1.5416 -3.5187 0.4083 -1.9145 -13.5149 -4.7589 -1.6663 29.4065 -2.0991 -1.4057 11.8050 0.0000 -0.0000 0.0000 -82.3514 14.2656 39.2555 152.0527 -39.0677 -109.9095 -0.0000 -0.0000 2.7232 20.0396 5.1703 1.8827 -7.1250 0.0000 -0.0000 -5.5374 35.4368 1.3060 0.0000 -0.0000 0.0000 72.5917 -9.9814 50.6479 -145.8390 44.2037 -105.7748 0.0000 -0.0000 -22.5205 -11.9858 -1.1625 0.2468 7.1250 -0.0000 -0.0000 11.5767 -31.0420 4.0219
-1.7813 15.0314 -3.8809 -4.5570 -22.5175 11.8402 0.0000 0.0000 0.0000 4.6469 -22.7952 -33.4105 4.1970 12.4180 37.2272 -0.3283 19.3245 -24.5529 0.9504 6.2086 17.3908 0.0000 0.0000 0.0000 26.2430 6.7940 -9.5602 -3.2039 -11.0180 32.3408 -2.5498 -11.0245 -35.6406 -0.0011 0.2183 -0.5999 5.3722 -1.7955 -6.6812 1.5370 -2.6363 -6.7911 -1.4972 -1.5378 -3.4807 0.4683 -1.8814 -13.4719 -4.8824 -1.5982 29.4569 -2.1473 -1.3850 11.8162 -0.0000 -0.0000 0.0000 -82.3017 14.1887 38.9095 152.2248 -38.9085 -110.0178 -0.0000 -0.0000 2.5911 20.0952 5.2326 1.9110 -7.1250 0.0000 -0.0000 -5.4975 35.5054 1.2873 -0.0000 -0.0000 0.0000 72.5820 -9.5995 50.4750 -145.9245 44.1406 -105.8344 0.0000 -0.0000 -22.3994 -12.0039 -1.1184 0.2378 7.1250 -0.0000 -0.0000 11.5569 -30.9982 4.0272
-1.7765 15.0278 -3.8638 -4.5437 -22.5478 11.8101 0.0000 0.0000 0.0000 4.5676 -23.1565 -33.1566 4.1901 12.4091 37.1951 -0.3272 19.5693 -24.9504 0.9326 6.1516 17.2248 0.0000 0.0000 0.0000 26.1983 6.8697 -9.4550 -3.2113 -11.0295 32.3795 -2.5627 -11.0601 -35.7323 -0.0010 0.2049 -0.5631 5.3482 -1.8010 -6.7853 1.6352 -2.6471 -6.8378 -1.3854 -1.5408 -3.4666 0.4688 -1.8589 -13.3973 -5.0136 -1.5280 29.4899 -2.1867 -1.3706 11.8151 0.0000 -0.0000 0.0000 -82.2817 14.1247 38.6644 152.3929 -38.7520 -110.1232 -0.0000 -0.0000 2.5263 20.2003 5.3481 1.9641 -7.1250 0.0000 -0.0000 -5.4218 35.6329 1.2526 0.0000 -0.0000 0.0000 72.5290 -9.2440 50.3336 -146.0602 44.0401 -105.9288 0.0000 -0.0000 -22.3029 -12.1348 -1.1192 0.2406 7.1250 -0.0000 -0.0000 11.4544 -31.0019 3.9891
-1.7709 15.0245 -3.8467 -4.5156 -22.5643 11.7910 0.0000 0.0000 0.0000 4.4712 -23.4995 -32.9399 4.1832 12.4003 37.1630 -0.3174 19.7819 -25.3719 0.9366 6.1643 17.2620 0.0000 0.0000 0.0000 26.1277 6.8859 -9.3939 -3.2187 -11.0409 32.4181 -2.5747 -11.0664 -35.8002 -0.0012 0.2196 -0.6032 5.3426 -1.8059 -6.9044 1.7153 -2.6589 -6.8936 -1.3029 -1.5458 -3.4557 0.4771 -1.8363 -13.3235 -5.1327 -1.4634 29.5389 -2.2242 -1.3565 11.8204 0.0000 -0.0000 0.0000 -82.2458 14.0633 38.4012 152.5627 -38.5931 -110.2293 -0.0000 -0.0000 2.4316 20.2894 5.4280 2.0029 -7.1250 0.0000 -0.0000 -5.3558 35.7219 1.2256 0.0000 -0.0000 0.0000 72.4965 -8.8967 50.1816 -146.1810 43.9502 -106.0127 0.0000 -0.0000 -22.2069 -12.2266 -1.1241 0.2436 7.1250 -0.0000 -0.0000 11.3829 -31.0088 3.9614
-1.7649 15.0216 -3.8299 -4.4709 -22.5480 11.7623 0.0000 0.0000 0.0000 4.3784 -23.9336 -32.7174 4.1758 12.3907 37.1287 -0.3000 20.0076 -25.8747 0.9602 6.2395 17.4808 0.0000 0.0000 0.0000 26.0472 6.8844 -9.3343 -3.2262 -11.0525 32.4572 -2.5870 -11.0858 -35.8777 -0.0012 0.2275 -0.6249 5.3126 -1.8208 -7.0014 1.7975 -2.6812 -6.9618 -1.2038 -1.5557 -3.4694 0.4640 -1.8200 -13.2332 -5.2384 -1.4063 29.5909 -2.2539 -1.3465 11.8237 -0.0000 0.0000 0.0000 -82.2132 14.0113 38.1685 152.7276 -38.4377 -110.3320 -0.0000 -0.0000 2.3418 20.3745 5.4933 2.0362 -7.1250 0.0000 -0.0000 -5.2916 35.7954 1.2012 -0.0000 0.0000 0.0000 72.4673 -8.5797 50.0282 -146.3197 43.8465 -106.1088 0.0000 -0.0000 -22.1422 -12.3226 -1.1340 0.2477 7.1250 -0.0000 -0.0000 11.3089 -31.0208 3.9314
-1.7589 15.0191 -3.8133 -4.4086 -22.5034 11.7251 0.0000 0.0000 0.0000 4.2821 -24.4262 -32.4975 4.1680 12.3806 37.0921 -0.2758 20.2351 -26.4291 1.0010 6.3668 17.8525 0.0000 0.0000 0.0000 25.9558 6.8713 -9.2754 -3.2341 -11.0646 32.4982 -2.5994 -11.1192 -35.9645 -0.0013 0.2333 -0.6411 5.2571 -1.8439 -7.0866 1.8798 -2.7120 -7.0381 -1.0899 -1.5691 -3.4973 0.4326 -1.8101 -13.1390 -5.3305 -1.3580 29.6568 -2.2770 -1.3409 11.8319 0.0000 -0.0000 0.0000 -82.1782 13.9592 37.9685 152.8854 -38.2882 -110.4300 -0.0000 -0.0000 2.2597 20.4535 5.5397 2.0620 -7.1250 0.0000 -0.0000 -5.2304 35.8487 1.1804 0.0000 -0.0000 0.0000 72.4450 -8.2901 49.8692 -146.4732 43.7311 -106.2151 0.0000 -0.0000 -22.1065 -12.4018 -1.1598 0.2550 7.1250 -0.0000 -0.0000 11.2498 -31.0485 3.9025
-1.7532 15.0169 -3.7970 -4.3335 -22.4379 11.6826 0.0000 0.0000 0.0000 4.1836 -24.9525 -32.2845 4.1604 12.3709 37.0570 -0.2473 20.4619 -27.0070 1.0506 6.5180 18.2949 0.0000 0.0000 0.0000 25.8599 6.8587 -9.2151 -3.2420 -11.0768 32.5395 -2.6109 -11.1736 -36.0601 -0.0013 0.2370 -0.6510 5.1795 -1.8696 -7.1618 1.9581 -2.7445 -7.1188 -0.9675 -1.5826 -3.5342 0.3879 -1.8080 -13.0460 -5.4027 -1.3231 29.7337 -2.2926 -1.3405 11.8446 0.0000 0.0000 0.0000 -82.1331 13.8933 37.8046 153.0304 -38.1502 -110.5197 -0.0000 -0.0000 2.1922 20.5232 5.5755 2.0830 -7.1250 0.0000 -0.0000 -5.1759 35.8902 1.1628 0.0000 0.0000 0.0000 72.4385 -8.0286 49.6962 -146.6423 43.6032 -106.3319 0.0000 -0.0000 -22.1008 -12.4660 -1.1905 0.2632 7.1250 -0.0000 -0.0000 11.2032 -31.0806 3.8770
-1.7476 15.0153 -3.7811 -4.2414 -22.3505 11.6358 0.0000 0.0000 0.0000 4.0727 -25.4861 -32.0861 4.1536 12.3620 37.0249 -0.2203 20.6870 -27.5599 1.0980 6.6586 18.7077 0.0000 0.0000 0.0000 25.7525 6.8381 -9.1588 -3.2498 -11.0888 32.5801 -2.6212 -11.2436 -36.1591 -0.0014 0.2430 -0.6677 5.0783 -1.8983 -7.2322 2.0301 -2.7794 -7.2011 -0.8384 -1.5964 -3.5744 0.3327 -1.8141 -12.9642 -5.4554 -1.3029 29.8258 -2.3018 -1.3455 11.8654 -0.0000 -0.0000 0.0000 -82.0770 13.8035 37.6695 153.1571 -38.0289 -110.5979 -0.0000 -0.0000 2.1493 20.5744 5.5864 2.0927 -7.1250 0.0000 -0.0000 -5.1343 35.9045 1.1516 -0.0000 -0.0000 0.0000 72.4486 -7.7902 49.4885 -146.8164 43.4707 -106.4518 0.0000 -0.0000 -22.0937 -12.4240 -1.1997 0.2643 7.1250 -0.0000 -0.0000 11.2374 -31.0890 3.8869
-1.7429 15.0138 -3.7659 -4.1521 -22.2611 11.5905 0.0000 0.0000 0.0000 3.9712 -26.0077 -31.8976 4.1478 12.3545 36.9979 -0.1950 20.9092 -28.0850 1.1395 6.7791 19.0627 0.0000 0.0000 0.0000 25.6599 6.8603 -9.0880 -3.2573 -11.1004 32.6191 -2.6293 -11.3519 -36.2713 -0.0014 0.2423 -0.6658 4.9609 -1.9217 -7.2979 2.0985 -2.8064 -7.2773 -0.7038 -1.6053 -3.6094 0.2759 -1.8275 -12.9086 -5.4898 -1.2975 29.9344 -2.3070 -1.3554 11.8978 0.0000 0.0000 0.0000 -82.0026 13.6808 37.5672 153.2666 -37.9238 -110.6652 -0.0000 -0.0000 2.1387 20.6101 5.5846 2.0960 -7.1250 0.0000 -0.0000 -5.1043 35.9044 1.1448 0.0000 0.0000 0.0000 72.4797 -7.5671 49.2478 -146.9945 43.3343 -106.5742 0.0000 -0.0000 -22.0793 -12.3022 -1.1934 0.2602 7.1250 -0.0000 -0.0000 11.3321 -31.0800 3.9234
-1.7384 15.0125 -3.7510 -4.0628 -22.1579 11.5486 0.0000 0.0000 0.0000 3.8751 -26.5191 -31.7263 4.1431 12.3485 36.9761 -0.1738 21.1260 -28.5636 1.1721 6.8718 19.3362 0.0000 0.0000 0.0000 25.5728 6.8855 -9.0178 -3.2644 -11.1113 32.6561 -2.6364 -11.4751 -36.3884 -0.0014 0.2437 -0.6696 4.8349 -1.9455 -7.3575 2.1637 -2.8332 -7.3516 -0.5676 -1.6136 -3.6454 0.2188 -1.8458 -12.8788 -5.5107 -1.3024 30.0617 -2.3097 -1.3686 11.9428 0.0000 0.0000 0.0000 -81.9187 13.5360 37.4935 153.3645 -37.8294 -110.7253 -0.0000 -0.0000 2.1683 20.6427 5.5803 2.0980 -7.1250 0.0000 -0.0000 -5.0768 35.9015 1.1390 0.0000 0.0000 0.0000 72.5227 -7.3620 48.9970 -147.1793 43.1918 -106.7008 0.0000 -0.0000 -22.0614 -12.1673 -1.1892 0.2564 7.1250 -0.0000 -0.0000 11.4376 -31.0727 3.9633
-1.7341 15.0114 -3.7368 -3.9746 -22.0452 11.5128 0.0000 0.0000 0.0000 3.7891 -27.0207 -31.5747 4.1397 12.3440 36.9599 -0.1526 21.3275 -29.0133 1.2012 6.9538 19.5786 0.0000 0.0000 0.0000 25.4913 6.9206 -8.9501 -3.2711 -11.1214 32.6905 -2.6434 -11.6088 -36.5118 -0.0014 0.2413 -0.6630 4.7036 -1.9681 -7.4145 2.2241 -2.8580 -7.4207 -0.4334 -1.6204 -3.6771 0.1637 -1.8683 -12.8810 -5.5175 -1.3169 30.2064 -2.3099 -1.3846 12.0013 0.0000 -0.0000 0.0000 -81.8216 13.3645 37.4500 153.4526 -37.7442 -110.7793 -0.0000 -0.0000 2.2302 20.6790 5.5603 2.0945 -7.1250 0.0000 -0.0000 -5.0445 35.8822 1.1341 0.0000 -0.0000 0.0000 72.5768 -7.1694 48.7494 -147.3698 43.0439 -106.8310 0.0000 -0.0000 -22.0493 -12.0859 -1.1948 0.2558 7.1250 -0.0000 -0.0000 11.5022 -31.0766 3.9853
-1.7298 15.0103 -3.7231 -3.8921 -21.9238 11.4833 0.0000 0.0000 0.0000 3.7171 -27.5121 -31.4418 4.1373 12.3409 36.9488 -0.1316 21.5138 -29.4340 1.2273 7.0261 19.7928 0.0000 0.0000 0.0000 25.4189 6.9611 -8.8841 -3.2770 -11.1306 32.7215 -2.6509 -11.7474 -36.6410 -0.0013 0.2353 -0.6465 4.5756 -1.9905 -7.4662 2.2800 -2.8823 -7.4873 -0.3055 -1.6271 -3.7095 0.1119 -1.8925 -12.9075 -5.5129 -1.3374 30.3695 -2.3084 -1.4017 12.0722 0.0000 -0.0000 0.0000 -81.7100 13.1744 37.4261 153.5356 -37.6636 -110.8301 -0.0000 -0.0000 2.3029 20.7120 5.5493 2.0940 -7.1250 0.0000 -0.0000 -5.0159 35.8721 1.1288 0.0000 -0.0000 0.0000 72.6393 -6.9896 48.5239 -147.5649 42.8913 -106.9640 0.0000 -0.0000 -22.0451 -12.0942 -1.2249 0.2624 7.1250 -0.0000 -0.0000 11.4995 -31.1069 3.9758
-1.7253 15.0092 -3.7099 -3.8159 -21.7967 11.4570 0.0000 0.0000 0.0000 3.6570 -27.9949 -31.3208 4.1359 12.3391 36.9425 -0.1110 21.6866 -29.8285 1.2501 7.0888 19.9786 0.0000 0.0000 0.0000 25.3547 7.0039 -8.8176 -3.2824 -11.1387 32.7492 -2.6586 -11.8885 -36.7733 -0.0012 0.2252 -0.6186 4.4548 -2.0095 -7.5093 2.3291 -2.9021 -7.5506 -0.1883 -1.6318 -3.7435 0.0630 -1.9195 -12.9488 -5.4945 -1.3664 30.5435 -2.3042 -1.4207 12.1507 0.0000 0.0000 0.0000 -81.5770 12.9634 37.4302 153.6137 -37.5876 -110.8778 -0.0000 -0.0000 2.3748 20.7508 5.5444 2.0965 -7.1250 0.0000 -0.0000 -4.9831 35.8690 1.1218 0.0000 0.0000 0.0000 72.7089 -6.8247 48.3230 -147.7629 42.7354 -107.0985 0.0000 -0.0000 -22.0602 -12.2132 -1.2739 0.2757 7.1250 -0.0000 -0.0000 11.4122 -31.1587 3.9301
